<?xml version="1.0" encoding="UTF-8"?>
<svg id="Layer_1" xmlns="http://www.w3.org/2000/svg" version="1.1" viewBox="0 0 384.94 632.41">
  <!-- Generator: Adobe Illustrator 29.4.0, SVG Export Plug-In . SVG Version: 2.1.0 Build 152)  -->
  <defs>
    <style>
      .st0, .st1 {
        fill: none;
        stroke: #000;
        stroke-linecap: round;
        stroke-linejoin: round;
        stroke-width: .72px;
      }

      .st1 {
        stroke-dasharray: 5.67 27.64;
      }
    </style>
  </defs>
  <path class="st0" d="M373.94,185.78l-43.98-27.47h-7.09v-7.09l-30.15-130.34C289.19,8.52,277.89,0,265.03,0H119.92C107.06,0,95.76,8.52,92.22,20.89l-30.15,130.34v7.09h-7.09l-43.98,27.47C4.06,191.24,0,199.59,0,208.43v160.56c0,8.84,4.06,17.19,11.01,22.65l43.98,27.47h7.09v7.09l31.32,183.33c2.79,13.34,14.56,22.89,28.19,22.89h141.78c13.63,0,25.39-9.55,28.19-22.89l31.32-183.33v-7.09h7.09l43.98-27.47c6.95-5.46,11.01-13.81,11.01-22.65v-160.56c0-8.84-4.06-17.19-11.01-22.65Z"/>
  <line class="st1" x1="73" y1="158.31" x2="78.67" y2="158.31"/>
  <line class="st1" x1="106.31" y1="158.31" x2="111.98" y2="158.31"/>
  <line class="st1" x1="139.61" y1="158.31" x2="145.28" y2="158.31"/>
  <line class="st1" x1="172.92" y1="158.31" x2="178.59" y2="158.31"/>
  <line class="st1" x1="206.23" y1="158.31" x2="211.9" y2="158.31"/>
  <line class="st1" x1="239.54" y1="158.31" x2="245.2" y2="158.31"/>
  <line class="st1" x1="272.84" y1="158.31" x2="278.51" y2="158.31"/>
  <line class="st1" x1="306.15" y1="158.31" x2="311.82" y2="158.31"/>
  <line class="st1" x1="73" y1="151.23" x2="78.67" y2="151.23"/>
  <line class="st1" x1="106.31" y1="151.23" x2="111.98" y2="151.23"/>
  <line class="st1" x1="139.61" y1="151.23" x2="145.28" y2="151.23"/>
  <line class="st1" x1="172.92" y1="151.23" x2="178.59" y2="151.23"/>
  <line class="st1" x1="206.23" y1="151.23" x2="211.9" y2="151.23"/>
  <line class="st1" x1="239.54" y1="151.23" x2="245.2" y2="151.23"/>
  <line class="st1" x1="272.84" y1="151.23" x2="278.51" y2="151.23"/>
  <line class="st1" x1="306.15" y1="151.23" x2="311.82" y2="151.23"/>
  <line class="st1" x1="73.06" y1="426.19" x2="78.73" y2="426.19"/>
  <line class="st1" x1="106.37" y1="426.19" x2="112.04" y2="426.19"/>
  <line class="st1" x1="139.68" y1="426.19" x2="145.35" y2="426.19"/>
  <line class="st1" x1="172.98" y1="426.19" x2="178.65" y2="426.19"/>
  <line class="st1" x1="206.29" y1="426.19" x2="211.96" y2="426.19"/>
  <line class="st1" x1="239.6" y1="426.19" x2="245.27" y2="426.19"/>
  <line class="st1" x1="272.91" y1="426.19" x2="278.57" y2="426.19"/>
  <line class="st1" x1="306.21" y1="426.19" x2="311.88" y2="426.19"/>
  <line class="st1" x1="73.06" y1="419.1" x2="78.73" y2="419.1"/>
  <line class="st1" x1="106.37" y1="419.1" x2="112.04" y2="419.1"/>
  <line class="st1" x1="139.68" y1="419.1" x2="145.35" y2="419.1"/>
  <line class="st1" x1="172.98" y1="419.1" x2="178.65" y2="419.1"/>
  <line class="st1" x1="206.29" y1="419.1" x2="211.96" y2="419.1"/>
  <line class="st1" x1="239.6" y1="419.1" x2="245.27" y2="419.1"/>
  <line class="st1" x1="272.91" y1="419.1" x2="278.57" y2="419.1"/>
  <line class="st1" x1="306.21" y1="419.1" x2="311.88" y2="419.1"/>
  <line class="st1" x1="54.99" y1="170.18" x2="54.99" y2="175.85"/>
  <line class="st1" x1="54.99" y1="203.48" x2="54.99" y2="209.15"/>
  <line class="st1" x1="54.99" y1="236.79" x2="54.99" y2="242.46"/>
  <line class="st1" x1="54.99" y1="270.1" x2="54.99" y2="275.77"/>
  <line class="st1" x1="54.99" y1="303.4" x2="54.99" y2="309.07"/>
  <line class="st1" x1="54.99" y1="336.71" x2="54.99" y2="342.38"/>
  <line class="st1" x1="54.99" y1="370.02" x2="54.99" y2="375.69"/>
  <line class="st1" x1="54.99" y1="403.33" x2="54.99" y2="409"/>
  <line class="st1" x1="62.08" y1="170.18" x2="62.08" y2="175.85"/>
  <line class="st1" x1="62.08" y1="203.48" x2="62.08" y2="209.15"/>
  <line class="st1" x1="62.08" y1="236.79" x2="62.08" y2="242.46"/>
  <line class="st1" x1="62.08" y1="270.1" x2="62.08" y2="275.77"/>
  <line class="st1" x1="62.08" y1="303.4" x2="62.08" y2="309.07"/>
  <line class="st1" x1="62.08" y1="336.71" x2="62.08" y2="342.38"/>
  <line class="st1" x1="62.08" y1="370.02" x2="62.08" y2="375.69"/>
  <line class="st1" x1="62.08" y1="403.33" x2="62.08" y2="409"/>
  <line class="st1" x1="322.87" y1="169.24" x2="322.87" y2="174.91"/>
  <line class="st1" x1="322.87" y1="202.55" x2="322.87" y2="208.22"/>
  <line class="st1" x1="322.87" y1="235.86" x2="322.87" y2="241.52"/>
  <line class="st1" x1="322.87" y1="269.16" x2="322.87" y2="274.83"/>
  <line class="st1" x1="322.87" y1="302.47" x2="322.87" y2="308.14"/>
  <line class="st1" x1="322.87" y1="335.78" x2="322.87" y2="341.45"/>
  <line class="st1" x1="322.87" y1="369.08" x2="322.87" y2="374.75"/>
  <line class="st1" x1="322.87" y1="402.39" x2="322.87" y2="408.06"/>
  <line class="st1" x1="329.95" y1="169.24" x2="329.95" y2="174.91"/>
  <line class="st1" x1="329.95" y1="202.55" x2="329.95" y2="208.22"/>
  <line class="st1" x1="329.95" y1="235.86" x2="329.95" y2="241.52"/>
  <line class="st1" x1="329.95" y1="269.16" x2="329.95" y2="274.83"/>
  <line class="st1" x1="329.95" y1="302.47" x2="329.95" y2="308.14"/>
  <line class="st1" x1="329.95" y1="335.78" x2="329.95" y2="341.45"/>
  <line class="st1" x1="329.95" y1="369.08" x2="329.95" y2="374.75"/>
  <line class="st1" x1="329.95" y1="402.39" x2="329.95" y2="408.06"/>
</svg>